<svg xmlns="http://www.w3.org/2000/svg" viewBox="0 0 660 340">
<title>Skeleton Crew logo - Wheat Paste variant</title>
<!-- Variant C: Wheat Paste
     Concept: Wheat-paste poster slapped on a wall. Skull overlaps text aggressively.
     Text dominates - extremely bold, tight tracking, blocky angular letterforms.
     Skull rendered entirely in neon green (#00FF41) as a background layer behind
     off-white text. Only upper skull visible (cranium, eyes, nose) - jaw obscured by text.
     Dense rectangular block composition. -->

<!-- GREEN SKULL LAYER - sits BEHIND the text, partially visible through gaps -->
<g fill="#00FF41">
  <!-- Cranium - large, positioned to peek between/behind the two text lines -->
  <path d="M218 32 C210 8 238 -14 278 -22 C300 -26 322 -28 332 -28 C342 -28 364 -26 386 -22 C426 -14 454 8 446 32 L442 108 C440 124 432 140 418 156 C408 166 394 176 384 182 L384 200 C384 210 370 220 352 224 C342 228 336 230 332 230 C328 230 322 228 312 224 C294 220 280 210 280 200 L280 184 C268 176 254 166 244 156 C230 140 224 124 222 108 Z"/>
  <!-- Left eye socket -->
  <ellipse cx="296" cy="56" rx="36" ry="40" fill="#0a0a0a"/>
  <!-- Right eye socket -->
  <ellipse cx="370" cy="52" rx="30" ry="34" fill="#0a0a0a"/>
  <!-- Eye dot in the green skull - bright green on dark socket -->
  <circle cx="370" cy="52" r="12" fill="#00FF41"/>
  <!-- Nose cavity -->
  <path d="M318 102 L332 128 L346 102 Z" fill="#0a0a0a"/>
  <!-- Upper teeth hints visible at the boundary -->
  <rect x="286" y="152" width="14" height="18" rx="2" fill="#0a0a0a"/>
  <rect x="306" y="150" width="16" height="22" rx="2" fill="#0a0a0a"/>
  <rect x="328" y="150" width="14" height="16" rx="2" fill="#0a0a0a"/>
  <path d="M348 150 L348 170 L354 164 L358 172 L364 150 Z" fill="#0a0a0a"/>
  <rect x="370" y="150" width="14" height="20" rx="2" fill="#0a0a0a"/>
</g>

<!-- SKELETON - line 1, MASSIVE bold blocky text, tight tracking -->
<!-- These letterforms are blocky, angular, cut-from-plywood style with rough notches -->
<g fill="#f5f5f5">
  <!-- S - blocky with notched edges -->
  <path d="M18 48 L18 100 L30 100 L30 86 L72 86 L72 100 L84 100 L84 136 C84 148 74 156 58 158 L44 158 C28 156 18 148 18 136 L18 120 L30 120 L30 134 C30 140 36 144 48 146 L54 146 C66 144 72 140 72 134 L72 120 L30 120 L18 120 Z M18 48 C18 36 28 28 44 26 L58 26 C74 28 84 36 84 48 L84 66 L72 66 L72 50 C72 44 66 40 54 38 L48 38 C36 40 30 44 30 50 L30 66 L72 66 L84 66 Z"/>
  <!-- K - heavy angular -->
  <path d="M98 26 L114 26 L114 84 L150 26 L170 26 L138 80 L172 158 L152 158 L124 92 L114 108 L114 158 L98 158 Z"/>
  <!-- E - blocky with notch -->
  <path d="M182 26 L182 158 L240 158 L240 144 L198 144 L198 100 L234 100 L234 86 L198 86 L198 40 L240 40 L240 26 Z M218 80 L218 76 L222 76 L222 80 Z"/>
  <!-- L - massive -->
  <path d="M252 26 L268 26 L268 144 L316 144 L316 158 L252 158 Z"/>
  <!-- E - blocky -->
  <path d="M326 26 L326 158 L384 158 L384 144 L342 144 L342 100 L378 100 L378 86 L342 86 L342 40 L384 40 L384 26 Z"/>
  <!-- T -->
  <path d="M394 26 L454 26 L454 42 L432 42 L432 158 L416 158 L416 42 L394 42 Z"/>
  <!-- O - blocky with rough inner -->
  <path d="M466 40 C460 50 458 64 458 80 C458 96 460 118 466 132 C474 146 486 156 502 158 C518 156 530 146 538 132 C544 118 546 96 546 80 C546 64 544 50 538 40 C530 28 518 22 502 22 C486 22 474 28 466 40 Z M502 36 C512 36 520 44 524 56 C528 66 530 78 530 80 C530 82 528 96 524 108 C520 120 512 128 502 128 C492 128 484 120 480 108 C476 96 474 82 474 80 C474 78 476 66 480 56 C484 44 492 36 502 36 Z"/>
  <!-- N -->
  <path d="M558 26 L574 26 L574 108 L616 26 L636 26 L636 158 L620 158 L620 72 L578 158 L558 158 Z"/>
</g>

<!-- CREW - line 2, even MORE massive, crushing tight below -->
<!-- The text overlaps where the skull's jaw would be, obscuring it -->
<g fill="#f5f5f5">
  <!-- C - heavy blocky -->
  <path d="M98 178 C86 190 80 208 80 228 C80 248 86 268 98 282 C110 294 126 300 146 300 C160 300 172 296 180 288 L180 272 L168 272 C162 280 154 284 144 286 C130 286 118 278 112 266 C106 254 104 242 104 228 C104 214 106 202 112 192 C118 182 130 176 144 176 C154 176 162 180 170 188 L182 188 L182 172 C172 164 160 160 146 160 C126 160 110 166 98 178 Z"/>
  <!-- R - heavy with rough stroke -->
  <path d="M196 162 L196 300 L216 300 L216 244 L242 244 L272 300 L296 300 L262 240 C278 234 288 220 288 202 C288 180 272 166 248 162 Z M216 178 L244 178 C260 178 270 188 270 202 C270 216 260 226 244 228 L216 228 Z"/>
  <!-- E - blocky -->
  <path d="M308 162 L308 300 L376 300 L376 284 L328 284 L328 240 L370 240 L370 224 L328 224 L328 178 L376 178 L376 162 Z"/>
  <!-- W - heavy angular -->
  <path d="M390 162 L414 300 L432 300 L454 218 L476 300 L494 300 L520 162 L502 162 L484 268 L464 162 L446 162 L428 268 L412 162 Z"/>
</g>

<!-- Subtle rough edge overlay - wheat paste torn paper effect at top and bottom -->
<path d="M0 0 L4 6 L10 2 L18 8 L26 3 L34 7 L42 1 L50 6 L58 3 L66 8 L74 2 L82 5 L90 1 L98 7 L106 3 L114 6 L122 2 L130 8 L138 4 L146 7 L154 1 L162 5 L170 3 L178 8 L186 2 L194 6 L202 4 L210 8 L218 1 L226 5 L234 3 L242 7 L250 2 L258 6 L266 4 L274 8 L282 1 L290 5 L298 3 L306 7 L314 2 L322 6 L330 4 L338 8 L346 1 L354 5 L362 3 L370 7 L378 2 L386 6 L394 4 L402 8 L410 1 L418 5 L426 3 L434 7 L442 2 L450 6 L458 4 L466 8 L474 1 L482 5 L490 3 L498 7 L506 2 L514 6 L522 4 L530 8 L538 1 L546 5 L554 3 L562 7 L570 2 L578 6 L586 4 L594 8 L602 1 L610 5 L618 3 L626 7 L634 2 L642 6 L650 4 L658 8 L660 0 Z" fill="#0a0a0a"/>

<path d="M0 340 L4 334 L10 338 L18 332 L26 337 L34 333 L42 339 L50 334 L58 337 L66 332 L74 338 L82 335 L90 339 L98 333 L106 337 L114 334 L122 338 L130 332 L138 336 L146 333 L154 339 L162 335 L170 337 L178 332 L186 338 L194 334 L202 336 L210 332 L218 339 L226 335 L234 337 L242 333 L250 338 L258 334 L266 336 L274 332 L282 339 L290 335 L298 337 L306 333 L314 338 L322 334 L330 336 L338 332 L346 339 L354 335 L362 337 L370 333 L378 338 L386 334 L394 336 L402 332 L410 339 L418 335 L426 337 L434 333 L442 338 L450 334 L458 336 L466 332 L474 339 L482 335 L490 337 L498 333 L506 338 L514 334 L522 336 L530 332 L538 339 L546 335 L554 337 L562 333 L570 338 L578 334 L586 336 L594 332 L602 339 L610 335 L618 337 L626 333 L634 338 L642 334 L650 336 L658 332 L660 340 Z" fill="#0a0a0a"/>

<!-- Neon green accent line running diagonally behind everything - wheat paste drip -->
<line x1="20" y1="316" x2="640" y2="324" stroke="#00FF41" stroke-width="3" stroke-linecap="round" opacity="0.5"/>
</svg>